<?xml version="1.0" standalone="no"?>
<!DOCTYPE svg PUBLIC "-//W3C//DTD SVG 20010904//EN"
 "http://www.w3.org/TR/2001/REC-SVG-20010904/DTD/svg10.dtd">
<svg version="1.0" xmlns="http://www.w3.org/2000/svg"
 width="417.000000pt" height="417.000000pt" viewBox="0 0 417.000000 417.000000"
 preserveAspectRatio="xMidYMid meet">

<g transform="translate(0.000000,417.000000) scale(0.100000,-0.100000)"
fill="#000000" stroke="none">
<path d="M1698 2098 c-926 -1140 -1688 -2079 -1692 -2085 -6 -10 78 -13 407
-13 l415 0 584 728 583 727 735 5 c725 6 736 6 808 28 168 51 280 120 398 245
103 108 169 229 211 387 15 59 17 157 20 1058 l4 992 -395 0 -395 0 -1683
-2072z m1682 547 l0 -535 -426 0 c-242 0 -424 4 -422 9 3 9 841 1059 846 1060
1 1 2 -240 2 -534z"/>
<path d="M4035 1445 c-302 -66 -546 -307 -627 -619 -19 -73 -21 -116 -25 -448
l-5 -368 396 0 396 0 0 725 0 725 -37 -1 c-21 0 -65 -7 -98 -14z"/>
</g>
</svg>
